<?xml version="1.0" encoding="utf-8"?>
<!-- Generator: Adobe Illustrator 18.0.0, SVG Export Plug-In . SVG Version: 6.00 Build 0)  -->
<!DOCTYPE svg PUBLIC "-//W3C//DTD SVG 1.1//EN" "http://www.w3.org/Graphics/SVG/1.1/DTD/svg11.dtd">
<svg version="1.1" id="Calque_1" xmlns="http://www.w3.org/2000/svg" xmlns:xlink="http://www.w3.org/1999/xlink" x="0px" y="0px"
	 viewBox="247.6 370.9 100 100" enable-background="new 247.6 370.9 100 100" xml:space="preserve">
<g>
	<g>
		<g>
			<path fill="#5F5F72" d="M347.1,410.9c-0.1-2.6-2.2-4.7-4.8-4.8h-0.7c-1.6,0-6.1,0.1-11.5,1.2c-1-7.4-3-12.7-3.1-13.1
				c-0.5-1.2-1.5-2.3-2.7-2.8c-0.6-0.2-1.2-0.4-1.9-0.4c-0.7,0-1.4,0.1-2,0.4c-0.4,0.1-4.4,2-9.4,5.5c-4.4-8.3-9.4-13.7-9.8-14.1
				c-0.9-1-2.2-1.5-3.6-1.5c-1.4,0-2.6,0.5-3.6,1.5c-0.4,0.4-5.4,5.8-9.8,14.1c-5-3.5-9-5.3-9.4-5.5c-0.6-0.3-1.3-0.4-2-0.4
				c-0.6,0-1.3,0.1-1.9,0.4c-1.2,0.5-2.2,1.5-2.7,2.8c-0.1,0.4-2.1,5.7-3.1,13.1c-5.5-1.1-9.9-1.2-11.5-1.2H253
				c-2.6,0.1-4.7,2.2-4.8,4.8c0,0.9-0.6,22.9,13.1,36.6c12.5,12.5,32.1,13.1,35.9,13.1h0.5c0,0,0,0,0,0c0,0,0,0,0,0h0.5
				c3.8,0,23.4-0.6,35.9-13.1C347.7,433.8,347.1,411.8,347.1,410.9z M322.4,395.9c0,0,2,5.2,2.9,12.5c-2.9,0.8-5.9,1.9-8.8,3.3
				c-0.8-3.7-1.9-7.2-3.3-10.3C318.2,397.8,322.4,395.9,322.4,395.9z M272.9,395.9c0,0,4.1,1.8,9.2,5.5c-1.4,3.2-2.5,6.6-3.3,10.3
				c-3-1.5-6-2.5-8.8-3.4C270.8,401.2,272.9,395.9,272.9,395.9z M264.7,443.9C252.4,431.6,253,411,253,411s0.2,0,0.5,0
				c2.6,0,14.2,0.4,24.4,6c-0.1,1.3-0.2,2.6-0.2,4c0,15.2,8.3,28.2,13,34.3C283.7,454.3,272.5,451.7,264.7,443.9z M297.7,455.5
				c-0.1,0-0.2,0-0.3-0.1c-1.7-1.9-14.7-16.6-14.7-34.4c0-19.2,14.8-34.7,14.8-34.7s14.9,15.5,14.9,34.7
				C312.5,439.3,298.8,454.3,297.7,455.5z M330.5,443.9c-7.8,7.8-19,10.4-26.1,11.2c4.7-6.1,13-19,13-34.3c0-1.4,0-2.7-0.2-4
				c10.2-5.5,21.8-5.9,24.4-5.9c0.3,0,0.5,0,0.5,0S342.8,431.6,330.5,443.9z"/>
		</g>
	</g>
</g>
</svg>
