<?xml version="1.0" encoding="utf-8"?>
<!-- Generator: Adobe Illustrator 18.0.0, SVG Export Plug-In . SVG Version: 6.00 Build 0)  -->
<!DOCTYPE svg PUBLIC "-//W3C//DTD SVG 1.1//EN" "http://www.w3.org/Graphics/SVG/1.1/DTD/svg11.dtd">
<svg version="1.1" id="Calque_1" xmlns="http://www.w3.org/2000/svg" xmlns:xlink="http://www.w3.org/1999/xlink" x="0px" y="0px"
	 viewBox="50 370.9 100 100" enable-background="new 50 370.9 100 100" xml:space="preserve">
<g>
	<path fill="#5F5F72" d="M103.3,372.9c3.5,0.7,7.1,1.1,10.5,2.1c18.1,5.2,31.8,21.7,33.4,40.4c1.7,18.6-5.5,33.4-20.5,44.3
		c-0.2,0.1-0.4,0.3-0.7,0.5c2,2.9,4,5.7,6.1,8.8c-2.4,0-4.7,0-6.9,0c-0.4,0-0.8-0.5-1.1-0.9c-1.1-1.6-2.2-3.2-3.4-4.9
		c-6.6,3.1-13.4,4.7-20.7,4.7c-7.2,0-14-1.6-20.6-4.7c-1.2,1.7-2.3,3.3-3.5,4.9c-0.3,0.4-1,0.8-1.5,0.8c-2,0.1-4,0-6.3,0
		c2.1-3,4-5.8,6-8.7c-1.9-1.5-3.8-2.9-5.6-4.5c-13.3-12.4-18.6-27.7-14.7-45.4c4.1-18.6,16-30.4,34.2-35.8c2.8-0.8,5.9-1.1,8.8-1.6
		C99,372.9,101.1,372.9,103.3,372.9z M58.6,420.4c0,22.9,18.7,41.5,41.5,41.5c22.8,0,41.5-18.7,41.5-41.5
		c0-22.8-18.8-41.5-41.6-41.4C77.1,379,58.6,397.6,58.6,420.4z"/>
	<path fill="#5F5F72" d="M102.3,418.2c-1.6-1.1-3.1-1.8-2.9-3.5c0.2-1.8,1.8-2.7,3.3-2.9c2.2-0.4,3.8-1.5,5.4-3
		c1.7-1.6,4.2-2.1,6.4-2.2c4.1-0.1,8.2,0.1,12.3,0.3c1.5,0.1,2.2,0.9,2.4,2.4c1,6.2-2.7,13.1-8.8,15.7c-1,0.4-1.5,1-1.8,2.1
		c-0.5,1.9-1.2,3.7-1.9,5.8c1-0.5,1.7-0.8,2.4-1.2c2.2-1.1,4.2-0.6,5.2,1.2c0.9,1.9,0.2,3.7-2,4.8c-8.7,4.5-17.9,6.8-27.9,5.7
		c1.1,1.1,2.3,2,3.2,3.1c1.1,1.3,1,2.8-0.1,4.2c-0.8,1-2.5,1.4-3.8,0.8c-0.6-0.3-1.2-0.7-1.7-1.1c-3.4-2.6-6.8-5.3-10.3-7.9
		c-3.6-2.7-5.2-6.4-5.2-10.8c0-0.7,0.1-1.2-0.8-1.6c-1-0.5-0.9-1.4-0.4-2.3c2.4-4.2,5.9-6.8,10.7-7.5c3.7-0.6,7.4-0.8,11.1-1.2
		C98.9,419,100.4,418.6,102.3,418.2z M118.6,410.7c-0.6,0.9-1.4,1.4-1.3,1.9c0.1,0.5,0.9,1.3,1.3,1.3c0.4,0,1.2-0.8,1.3-1.3
		C119.9,412.1,119.2,411.5,118.6,410.7z"/>
	<path fill="#5F5F72" d="M113.5,443c-0.4,1.4-0.9,2.7-1.3,3.9c-0.7,2-2.3,2.9-4.2,2.4c-1.4-0.4-2.8-2.9-2.4-4.3
		c0.1-0.2,0.4-0.5,0.6-0.5C108.6,444,111,443.5,113.5,443z"/>
	<path fill="#5F5F72" d="M76,436.9c1.3,2,2.4,3.8,3.7,5.8c-1.1,1.1-2.5,2.1-4.4,1.4c-1.3-0.4-2.1-1.5-2.3-2.8
		C72.7,438.9,74.6,438,76,436.9z"/>
</g>
</svg>
