<?xml version="1.0" encoding="utf-8"?>
<!-- Generator: Adobe Illustrator 18.0.0, SVG Export Plug-In . SVG Version: 6.00 Build 0)  -->
<!DOCTYPE svg PUBLIC "-//W3C//DTD SVG 1.1//EN" "http://www.w3.org/Graphics/SVG/1.1/DTD/svg11.dtd">
<svg version="1.1" id="Calque_1" xmlns="http://www.w3.org/2000/svg" xmlns:xlink="http://www.w3.org/1999/xlink" x="0px" y="0px"
	 viewBox="247.6 370.9 100 100" enable-background="new 247.6 370.9 100 100" xml:space="preserve">
<g>
	<path fill="#5F5F72" d="M331.2,391.6c0.3-4-0.4-11.1-8.1-11.1c-8.7,0-21.8,0-26.4,0c0,0-0.6,0-1.7,0c-4.1,0-15.2,0-23.8,0
		c-10.8,0-7.8,13.8-7.8,13.8s-22.8,36.3-11.3,67h67.2h2.1h20.8C355.6,422.3,331.2,391.6,331.2,391.6z M254.4,458.3
		c-2-6.1-2.7-12.9-2.3-20.2c0.4-6.6,1.9-13.6,4.2-20.8c3.1-9.6,7.2-17.1,8.9-20.1h60c-3.1,6.5-5.4,13.5-6.9,20.8
		c-1.5,7.1-2.2,14.6-2.2,22.1c0.1,8,1,14.3,1.7,18.1H254.4z"/>
	<path fill="#5F5F72" d="M285,421.6c-27.8,22.3,0,14.2,0,14.2S312.8,443.9,285,421.6z"/>
	<circle fill="#5F5F72" cx="269.9" cy="417.3" r="6.3"/>
	<circle fill="#5F5F72" cx="301.2" cy="417.3" r="6.3"/>
	<circle fill="#5F5F72" cx="285.5" cy="412.6" r="6.3"/>
</g>
</svg>
